<?xml version="1.0" encoding="utf-8"?>
<svg width="340" height="321" viewBox="0 0 340 321" fill="none" xmlns="http://www.w3.org/2000/svg">
<path d="M182.175 1.5C184.575 2.5 193.275 10.5 206.675 23.8C218.075 35.2 227.375 44.8 227.375 45.2C227.375 45.7 186.975 46.1 137.675 46.2L47.8746 46.5V91.5V136.5L169.675 136.8L291.375 137V82.4V27.8L294.275 24.9L297.175 22H315.275C332.875 22 333.375 22.1 336.075 24.4L338.875 26.8L339.175 162.2C339.375 259.3 339.075 298.3 338.275 300.2C336.275 305 332.275 306 314.875 306C298.375 306 294.575 305.2 292.375 301.1C291.775 299.8 291.375 279.1 291.375 241.6V184H169.475H47.5746L47.6746 229.2L47.8746 274.5L137.675 274.8C186.975 274.9 227.375 275.4 227.375 275.8C227.375 277 185.575 317.3 182.575 319C180.275 320.3 170.275 320.5 110.375 320.5C41.4746 320.5 40.8746 320.5 37.2746 318.4C35.3746 317.2 26.8746 309.6 18.5746 301.5C7.47463 290.6 2.97463 285.5 1.77463 282.4C0.374631 278.7 0.174631 265.7 0.0746305 159.4C-0.125369 45.6 -0.0253695 40.4 1.67463 37.1C3.97463 33 33.3746 4.2 37.7746 1.8C40.5746 0.199995 46.7746 0.0999952 109.675 -4.77582e-06C169.275 -4.77582e-06 178.975 0.199995 182.175 1.5Z" fill="#FFA31A"/>
</svg>